<?xml version="1.0" encoding="iso-8859-1"?>
<!-- Generator: Adobe Illustrator 18.0.0, SVG Export Plug-In . SVG Version: 6.00 Build 0)  -->
<!DOCTYPE svg PUBLIC "-//W3C//DTD SVG 1.1//EN" "http://www.w3.org/Graphics/SVG/1.1/DTD/svg11.dtd">
<svg version="1.1" id="Capa_1" xmlns="http://www.w3.org/2000/svg" xmlns:xlink="http://www.w3.org/1999/xlink" x="0px" y="0px"
	 viewBox="0 0 488.095 488.095" style="enable-background:new 0 0 488.095 488.095;" xml:space="preserve">
<path d="M352.637,348.499c-16.518-16.52-76.46,16.656-92.988,33.175c-1.066,1.059-2.021,2.422-3.022,3.649l0.092-170.074
	c27.716,0,56.811-8.31,69.77-34.476c11.555-23.336,13.536-113.133,13.872-146.917c0.025-2.414-1.347-4.643-3.513-5.717
	c-2.173-1.076-4.771-0.811-6.671,0.673c-12.094,9.414-33.135,26.093-53.607,43.687c-11.187-26.871-23.984-54.015-31.187-68.931
	C244.332,1.386,242.127,0,239.697,0c-2.422-0.008-4.626,1.386-5.677,3.568c-7.202,14.907-20,42.051-31.186,68.923
	c-20.474-17.586-41.517-34.265-53.608-43.679c-1.9-1.485-4.498-1.749-6.671-0.673c-2.166,1.074-3.538,3.303-3.513,5.717
	c0.336,33.784,2.317,123.581,13.872,146.917c13.191,26.64,43.167,34.736,71.273,34.736l0.041,85.317
	c-20.689-17.241-73.431-44.74-88.771-29.399c-16.527,16.528,16.64,76.479,33.167,92.997c12.493,12.494,37.161,21.811,55.604,18.476
	v88.997c0,8.949,7.249,16.198,16.198,16.198c8.942,0,16.199-7.249,16.199-16.198v-14.114c18.619,8.028,48.611-2.053,62.845-16.278
	C335.999,424.968,369.165,365.026,352.637,348.499z"/>
<g>
</g>
<g>
</g>
<g>
</g>
<g>
</g>
<g>
</g>
<g>
</g>
<g>
</g>
<g>
</g>
<g>
</g>
<g>
</g>
<g>
</g>
<g>
</g>
<g>
</g>
<g>
</g>
<g>
</g>
</svg>
